<svg width="36" height="20" viewBox="0 0 36 20" fill="none" xmlns="http://www.w3.org/2000/svg">
<path d="M2 12H12M18 18V2H24C25.0609 2 26.0783 2.42143 26.8284 3.17157C27.5786 3.92172 28 4.93913 28 6V8C28 9.06087 27.5786 10.0783 26.8284 10.8284C26.0783 11.5786 25.0609 12 24 12H18M34 2V18M12 18V7C12 5.67392 11.4732 4.40215 10.5355 3.46447C9.59785 2.52678 8.32608 2 7 2C5.67392 2 4.40215 2.52678 3.46447 3.46447C2.52678 4.40215 2 5.67392 2 7V18" stroke="url(#paint0_linear_604_1469)" stroke-width="3" stroke-linecap="round" stroke-linejoin="round"/>
<defs>
<linearGradient id="paint0_linear_604_1469" x1="18" y1="2" x2="34" y2="41.5" gradientUnits="userSpaceOnUse">
<stop stop-color="#00B8A8"/>
<stop offset="1" stop-color="#00524B"/>
</linearGradient>
</defs>
</svg>
