<svg width="40" height="40" viewBox="0 0 40 40" fill="none" xmlns="http://www.w3.org/2000/svg">
<rect width="40" height="40" rx="10" fill="url(#paint0_linear_1_574)"/>
<path d="M12 21H17M20 24V16H23C23.5304 16 24.0391 16.2107 24.4142 16.5858C24.7893 16.9609 25 17.4696 25 18V19C25 19.5304 24.7893 20.0391 24.4142 20.4142C24.0391 20.7893 23.5304 21 23 21H20M28 16V24M17 24V18.5C17 17.837 16.7366 17.2011 16.2678 16.7322C15.7989 16.2634 15.163 16 14.5 16C13.837 16 13.2011 16.2634 12.7322 16.7322C12.2634 17.2011 12 17.837 12 18.5V24" stroke="white" stroke-width="1.5" stroke-linecap="round" stroke-linejoin="round"/>
<defs>
<linearGradient id="paint0_linear_1_574" x1="20" y1="0" x2="20" y2="56" gradientUnits="userSpaceOnUse">
<stop stop-color="#00B8A8"/>
<stop offset="1" stop-color="#00524B"/>
</linearGradient>
</defs>
</svg>
