<svg width="40" height="40" viewBox="0 0 40 40" fill="none" xmlns="http://www.w3.org/2000/svg">
<rect width="40" height="40" rx="10" fill="url(#paint0_linear_1_542)"/>
<path d="M23.5 21C22.5717 21 21.6815 21.3687 21.0251 22.0251C20.3687 22.6815 20 23.5717 20 24.5M20 24.5V25.5M20 24.5C20 23.5717 19.6313 22.6815 18.9749 22.0251C18.3185 21.3687 17.4283 21 16.5 21M20 24.5V14.5M20 25.5C20 26.4283 20.3687 27.3185 21.0251 27.9749C21.6815 28.6313 22.5717 29 23.5 29C24.4283 29 25.3185 28.6313 25.9749 27.9749C26.6313 27.3185 27 26.4283 27 25.5V23.7M20 25.5C20 26.4283 19.6313 27.3185 18.9749 27.9749C18.3185 28.6313 17.4283 29 16.5 29C15.5717 29 14.6815 28.6313 14.0251 27.9749C13.3687 27.3185 13 26.4283 13 25.5V23.7M25.5 24C26.4283 24 27.3185 23.6313 27.9749 22.9749C28.6313 22.3185 29 21.4283 29 20.5C29 19.5717 28.6313 18.6815 27.9749 18.0251C27.3185 17.3687 26.4283 17 25.5 17H25M27 17.3V14.5C27 13.5717 26.6313 12.6815 25.9749 12.0251C25.3185 11.3687 24.4283 11 23.5 11C22.5717 11 21.6815 11.3687 21.0251 12.0251C20.3687 12.6815 20 13.5717 20 14.5M20 14.5C20 13.5717 19.6313 12.6815 18.9749 12.0251C18.3185 11.3687 17.4283 11 16.5 11C15.5717 11 14.6815 11.3687 14.0251 12.0251C13.3687 12.6815 13 13.5717 13 14.5V17.3M14.5 24C13.5717 24 12.6815 23.6313 12.0251 22.9749C11.3687 22.3185 11 21.4283 11 20.5C11 19.5717 11.3687 18.6815 12.0251 18.0251C12.6815 17.3687 13.5717 17 14.5 17H15" stroke="white" stroke-width="1.5" stroke-linecap="round" stroke-linejoin="round"/>
<defs>
<linearGradient id="paint0_linear_1_542" x1="20" y1="0" x2="20" y2="56" gradientUnits="userSpaceOnUse">
<stop stop-color="#00B8A8"/>
<stop offset="1" stop-color="#00524B"/>
</linearGradient>
</defs>
</svg>
