<svg width="40" height="40" viewBox="0 0 40 40" fill="none" xmlns="http://www.w3.org/2000/svg">
<rect width="40" height="40" rx="10" fill="url(#paint0_linear_1_579)"/>
<path d="M17 20L19 22L23 18M13 15.2C13 14.6165 13.2318 14.0569 13.6443 13.6443C14.0569 13.2318 14.6165 13 15.2 13H16.2C16.7809 12.9996 17.3381 12.7696 17.75 12.36L18.45 11.66C18.6544 11.4544 18.8975 11.2912 19.1652 11.1799C19.4329 11.0685 19.72 11.0112 20.01 11.0112C20.2999 11.0112 20.587 11.0685 20.8547 11.1799C21.1225 11.2912 21.3655 11.4544 21.57 11.66L22.27 12.36C22.682 12.77 23.24 13 23.82 13H24.82C25.4034 13 25.963 13.2318 26.3756 13.6443C26.7882 14.0569 27.02 14.6165 27.02 15.2V16.2C27.02 16.78 27.25 17.338 27.66 17.75L28.36 18.45C28.5656 18.6544 28.7287 18.8975 28.8401 19.1652C28.9514 19.4329 29.0087 19.72 29.0087 20.01C29.0087 20.2999 28.9514 20.587 28.8401 20.8547C28.7287 21.1225 28.5656 21.3655 28.36 21.57L27.66 22.27C27.2504 22.6819 27.0203 23.2391 27.02 23.82V24.82C27.02 25.4034 26.7882 25.963 26.3756 26.3756C25.963 26.7882 25.4034 27.02 24.82 27.02H23.82C23.2391 27.0203 22.6819 27.2504 22.27 27.66L21.57 28.36C21.3655 28.5656 21.1225 28.7287 20.8547 28.8401C20.587 28.9514 20.2999 29.0087 20.01 29.0087C19.72 29.0087 19.4329 28.9514 19.1652 28.8401C18.8975 28.7287 18.6544 28.5656 18.45 28.36L17.75 27.66C17.3381 27.2504 16.7809 27.0203 16.2 27.02H15.2C14.6165 27.02 14.0569 26.7882 13.6443 26.3756C13.2318 25.963 13 25.4034 13 24.82V23.82C12.9996 23.2391 12.7696 22.6819 12.36 22.27L11.66 21.57C11.4544 21.3655 11.2912 21.1225 11.1799 20.8547C11.0685 20.587 11.0112 20.2999 11.0112 20.01C11.0112 19.72 11.0685 19.4329 11.1799 19.1652C11.2912 18.8975 11.4544 18.6544 11.66 18.45L12.36 17.75C12.7696 17.3381 12.9996 16.7809 13 16.2V15.2Z" stroke="white" stroke-width="1.5" stroke-linecap="round" stroke-linejoin="round"/>
<defs>
<linearGradient id="paint0_linear_1_579" x1="20" y1="0" x2="20" y2="56" gradientUnits="userSpaceOnUse">
<stop stop-color="#00B8A8"/>
<stop offset="1" stop-color="#00524B"/>
</linearGradient>
</defs>
</svg>
