<svg width="661" height="897" viewBox="0 0 661 897" fill="none" xmlns="http://www.w3.org/2000/svg">
<line x1="897" y1="0.5" x2="1" y2="0.5" stroke="#D4D4D4"/>
<line x1="897" y1="100.056" x2="1" y2="100.056" stroke="#D4D4D4"/>
<line x1="897" y1="199.611" x2="1" y2="199.611" stroke="#D4D4D4"/>
<line x1="897" y1="299.167" x2="1" y2="299.167" stroke="#D4D4D4"/>
<line x1="897" y1="398.722" x2="1" y2="398.722" stroke="#D4D4D4"/>
<line x1="897" y1="498.278" x2="1" y2="498.278" stroke="#D4D4D4"/>
<line x1="897" y1="597.833" x2="1" y2="597.833" stroke="#D4D4D4"/>
<line x1="897" y1="697.389" x2="1" y2="697.389" stroke="#D4D4D4"/>
<line x1="897" y1="796.944" x2="1" y2="796.944" stroke="#D4D4D4"/>
<line x1="897" y1="896.5" x2="1" y2="896.5" stroke="#D4D4D4"/>
<line x1="597.833" y1="896" x2="597.833" stroke="#D4D4D4"/>
<line x1="498.278" y1="896" x2="498.278" stroke="#D4D4D4"/>
<line x1="398.722" y1="896" x2="398.722" stroke="#D4D4D4"/>
<line x1="299.167" y1="896" x2="299.167" stroke="#D4D4D4"/>
<line x1="199.611" y1="896" x2="199.611" stroke="#D4D4D4"/>
<line x1="100.056" y1="896" x2="100.056" stroke="#D4D4D4"/>
<line x1="0.500061" y1="896" x2="0.500061" stroke="#D4D4D4"/>
<rect x="598" y="797" width="99" height="99" transform="rotate(90 598 797)" fill="#E3E3E3"/>
<rect x="697" y="200" width="99" height="99" transform="rotate(90 697 200)" fill="#E3E3E3"/>
<rect x="697" y="499" width="99" height="99" transform="rotate(90 697 499)" fill="#E3E3E3"/>
</svg>
