<svg width="40" height="40" viewBox="0 0 40 40" fill="none" xmlns="http://www.w3.org/2000/svg">
<rect width="40" height="40" rx="10" fill="url(#paint0_linear_1_563)"/>
<path d="M22 11V15C22 15.2652 22.1054 15.5196 22.2929 15.7071C22.4804 15.8946 22.7348 16 23 16H27M22 11H15C14.4696 11 13.9609 11.2107 13.5858 11.5858C13.2107 11.9609 13 12.4696 13 13V27C13 27.5304 13.2107 28.0391 13.5858 28.4142C13.9609 28.7893 14.4696 29 15 29H25C25.5304 29 26.0391 28.7893 26.4142 28.4142C26.7893 28.0391 27 27.5304 27 27V16M22 11L27 16M17 25V20M20 25V24M23 25V22" stroke="white" stroke-width="1.5" stroke-linecap="round" stroke-linejoin="round"/>
<defs>
<linearGradient id="paint0_linear_1_563" x1="20" y1="0" x2="20" y2="56" gradientUnits="userSpaceOnUse">
<stop stop-color="#00B8A8"/>
<stop offset="1" stop-color="#00524B"/>
</linearGradient>
</defs>
</svg>
