<svg width="131" height="32" viewBox="0 0 131 32" fill="none" xmlns="http://www.w3.org/2000/svg">
<path d="M12.5491 25.1753C12.5491 25.2909 12.6427 25.3844 12.7582 25.3844H21.9088C26.5291 25.3844 30.2748 21.639 30.2748 17.0185V7.52946C30.2748 7.41395 30.1811 7.32031 30.0656 7.32031H20.9151C16.2947 7.32031 12.5491 11.0659 12.5491 15.6863V25.1753Z" fill="#01B2A3"/>
<path d="M12.6254 25.1594C12.7071 25.2409 12.8395 25.2409 12.9212 25.1594L19.3915 18.689C22.6587 15.4219 22.6587 10.1248 19.3915 6.85768L12.6818 0.147929C12.6001 0.0662505 12.4677 0.0662503 12.386 0.147928L5.91569 6.61826C2.64855 9.8854 2.64855 15.1825 5.91569 18.4496L12.6254 25.1594Z" fill="#01544D"/>
<path d="M38.5815 25.5162V7.65479H45.9302C47.5123 7.65479 48.8646 7.90995 49.9873 8.42028C51.127 8.9306 52.0031 9.66206 52.6155 10.6147C53.2279 11.5673 53.5341 12.6985 53.5341 14.0084C53.5341 15.3182 53.2279 16.4494 52.6155 17.402C52.0031 18.3546 51.127 19.0861 49.9873 19.5964C48.8646 20.1068 47.5123 20.3619 45.9302 20.3619H40.4187L41.8987 18.8054V25.5162H38.5815ZM41.8987 19.1627L40.4187 17.5551H45.7771C47.2402 17.5551 48.3374 17.2489 49.0688 16.6365C49.8173 16.0071 50.1915 15.1311 50.1915 14.0084C50.1915 12.8686 49.8173 11.9926 49.0688 11.3802C48.3374 10.7678 47.2402 10.4616 45.7771 10.4616H40.4187L41.8987 8.82854V19.1627ZM64.8107 25.5162V22.7605L64.6321 22.1736V17.351C64.6321 16.4154 64.3514 15.6924 63.79 15.1821C63.2287 14.6548 62.3782 14.3911 61.2384 14.3911C60.4729 14.3911 59.716 14.5102 58.9674 14.7483C58.236 14.9865 57.6151 15.3182 57.1047 15.7435L55.8544 13.4215C56.586 12.8601 57.4536 12.4433 58.4571 12.1712C59.4777 11.882 60.5325 11.7374 61.6211 11.7374C63.5945 11.7374 65.1169 12.2137 66.1885 13.1663C67.2774 14.1019 67.8216 15.5563 67.8216 17.5296V25.5162H64.8107ZM60.5239 25.6948C59.5033 25.6948 58.6102 25.5248 57.8447 25.1845C57.0792 24.8273 56.484 24.3425 56.0586 23.7301C55.6503 23.1007 55.4462 22.3947 55.4462 21.6122C55.4462 20.8467 55.6248 20.1578 55.982 19.5454C56.3564 18.933 56.9602 18.4482 57.7937 18.091C58.6273 17.7337 59.7329 17.5551 61.1108 17.5551H65.0658V19.673H61.3404C60.2518 19.673 59.5204 19.8516 59.146 20.2088C58.7719 20.549 58.5847 20.9743 58.5847 21.4846C58.5847 22.0629 58.8143 22.5222 59.2736 22.8625C59.7329 23.2028 60.3708 23.3729 61.1873 23.3729C61.97 23.3729 62.6673 23.1942 63.2797 22.837C63.9092 22.4798 64.3599 21.9525 64.6321 21.255L65.1679 23.1687C64.8617 23.9683 64.3089 24.5891 63.5093 25.0314C62.7269 25.4738 61.7318 25.6948 60.5239 25.6948ZM72.7885 30.645C72.1251 30.645 71.4616 30.5344 70.7982 30.3133C70.1348 30.0922 69.582 29.786 69.1397 29.3947L70.4155 27.0472C70.7388 27.3365 71.1044 27.5661 71.5127 27.7361C71.9209 27.9062 72.3378 27.9913 72.763 27.9913C73.3415 27.9913 73.8091 27.8468 74.1664 27.5575C74.5236 27.2683 74.8553 26.7835 75.1615 26.1031L75.9525 24.317L76.2077 23.9342L81.362 11.8905H84.4239L78.0449 26.6134C77.6197 27.6341 77.1434 28.442 76.6159 29.0375C76.1056 29.6329 75.5273 30.0496 74.8808 30.2878C74.2515 30.526 73.554 30.645 72.7885 30.645ZM75.5953 26.001L69.4459 11.8905H72.763L77.7642 23.6535L75.5953 26.001ZM86.591 25.6948C86.0126 25.6948 85.5193 25.4993 85.111 25.108C84.7027 24.6997 84.4986 24.1894 84.4986 23.577C84.4986 22.9305 84.7027 22.4202 85.111 22.046C85.5193 21.6547 86.0126 21.4591 86.591 21.4591C87.1693 21.4591 87.6626 21.6547 88.0709 22.046C88.4792 22.4202 88.6833 22.9305 88.6833 23.577C88.6833 24.1894 88.4792 24.6997 88.0709 25.108C87.6626 25.4993 87.1693 25.6948 86.591 25.6948Z" fill="white"/>
<path d="M92.106 25.5162V7.65479H95.4231V25.5162H92.106ZM107.68 11.7374C108.768 11.7374 109.738 11.95 110.588 12.3753C111.456 12.8006 112.136 13.4555 112.63 14.3401C113.123 15.2076 113.37 16.3303 113.37 17.7082V25.5162H110.18V18.1165C110.18 16.9087 109.891 16.0071 109.313 15.4118C108.751 14.8164 107.96 14.5187 106.94 14.5187C106.191 14.5187 105.528 14.6718 104.949 14.978C104.371 15.2842 103.92 15.7435 103.597 16.3559C103.291 16.9512 103.138 17.7082 103.138 18.6268V25.5162H99.9481V11.8905H102.984V15.5649L102.449 14.4421C102.925 13.5746 103.614 12.9112 104.515 12.4519C105.434 11.9756 106.489 11.7374 107.68 11.7374ZM123.692 25.6948C122.263 25.6948 120.988 25.3972 119.865 24.8018C118.759 24.1894 117.891 23.3559 117.262 22.3012C116.633 21.2464 116.318 20.0472 116.318 18.7034C116.318 17.3425 116.633 16.1432 117.262 15.1056C117.891 14.0509 118.759 13.2259 119.865 12.6305C120.988 12.0351 122.263 11.7374 123.692 11.7374C125.019 11.7374 126.184 12.0096 127.188 12.5539C128.209 13.0813 128.983 13.8638 129.51 14.9014L127.06 16.3303C126.652 15.6839 126.15 15.2076 125.555 14.9014C124.976 14.5952 124.347 14.4421 123.667 14.4421C122.884 14.4421 122.178 14.6122 121.549 14.9525C120.919 15.2927 120.426 15.786 120.069 16.4324C119.712 17.0618 119.533 17.8188 119.533 18.7034C119.533 19.5879 119.712 20.3534 120.069 20.9998C120.426 21.6292 120.919 22.114 121.549 22.4543C122.178 22.7946 122.884 22.9646 123.667 22.9646C124.347 22.9646 124.976 22.8115 125.555 22.5053C126.15 22.1991 126.652 21.7229 127.06 21.0764L129.51 22.5053C128.983 23.5259 128.209 24.317 127.188 24.8783C126.184 25.4227 125.019 25.6948 123.692 25.6948Z" fill="#00B0A1"/>
</svg>
