<svg width="130" height="32" viewBox="0 0 130 32" fill="none" xmlns="http://www.w3.org/2000/svg">
<path d="M12.52 25.1752C12.52 25.2909 12.6134 25.3844 12.7287 25.3844H21.8581C26.4678 25.3844 30.2048 21.6389 30.2048 17.0184V7.5294C30.2048 7.41389 30.1113 7.32025 29.9962 7.32025H20.8667C16.257 7.32025 12.52 11.0658 12.52 15.6863V25.1752Z" fill="#01B2A3"/>
<path d="M12.5962 25.1593C12.6777 25.2409 12.8098 25.2409 12.8913 25.1593L19.3467 18.6889C22.6064 15.4218 22.6064 10.1247 19.3467 6.85762L12.6525 0.147868C12.571 0.0661894 12.4389 0.0661892 12.3574 0.147867L5.90197 6.6182C2.64238 9.88534 2.64238 15.1824 5.90197 18.4495L12.5962 25.1593Z" fill="#01544D"/>
<path d="M38.4924 25.5163V7.65491H45.8242C47.4025 7.65491 48.7518 7.91007 49.8719 8.4204C51.0089 8.93072 51.8831 9.66219 52.494 10.6148C53.105 11.5674 53.4105 12.6986 53.4105 14.0085C53.4105 15.3183 53.105 16.4495 52.494 17.4022C51.8831 18.3548 51.0089 19.0862 49.8719 19.5966C48.7518 20.1069 47.4025 20.362 45.8242 20.362H40.3254L41.8019 18.8055V25.5163H38.4924ZM41.8019 19.1628L40.3254 17.5552H45.6714C47.1311 17.5552 48.2257 17.2491 48.9554 16.6367C49.7023 16.0073 50.0756 15.1312 50.0756 14.0085C50.0756 12.8688 49.7023 11.9927 48.9554 11.3803C48.2257 10.7679 47.1311 10.4617 45.6714 10.4617H40.3254L41.8019 8.82866V19.1628ZM64.661 25.5163V22.7606L64.4828 22.1737V17.3511C64.4828 16.4155 64.2028 15.6926 63.6427 15.1822C63.0827 14.6549 62.2342 14.3912 61.097 14.3912C60.3333 14.3912 59.5781 14.5103 58.8313 14.7484C58.1016 14.9866 57.482 15.3183 56.9729 15.7436L55.7255 13.4216C56.4554 12.8602 57.3209 12.4435 58.3221 12.1713C59.3404 11.8821 60.3927 11.7375 61.4789 11.7375C63.4476 11.7375 64.9665 12.2138 66.0357 13.1664C67.1221 14.102 67.665 15.5565 67.665 17.5297V25.5163H64.661ZM60.3842 25.695C59.3659 25.695 58.4749 25.5249 57.7111 25.1846C56.9474 24.8274 56.3536 24.3426 55.9291 23.7302C55.5218 23.1009 55.3181 22.3948 55.3181 21.6123C55.3181 20.8469 55.4963 20.1579 55.8528 19.5455C56.2263 18.9331 56.8287 18.4483 57.6602 18.0911C58.492 17.7339 59.595 17.5552 60.9697 17.5552H64.9156V19.6731H61.1988C60.1127 19.6731 59.383 19.8517 59.0095 20.2089C58.6362 20.5492 58.4494 20.9744 58.4494 21.4848C58.4494 22.0631 58.6785 22.5224 59.1368 22.8626C59.595 23.2029 60.2314 23.373 61.0461 23.373C61.8269 23.373 62.5226 23.1944 63.1336 22.8371C63.7617 22.4799 64.2114 21.9526 64.4828 21.2551L65.0174 23.1688C64.712 23.9684 64.1604 24.5892 63.3627 25.0315C62.5821 25.4739 61.5892 25.695 60.3842 25.695ZM72.6205 30.6451C71.9586 30.6451 71.2967 30.5345 70.6348 30.3134C69.9729 30.0923 69.4214 29.7862 68.98 29.3948L70.2529 27.0473C70.5755 27.3366 70.9403 27.5662 71.3476 27.7363C71.7549 27.9063 72.1708 27.9914 72.595 27.9914C73.1722 27.9914 73.6388 27.8469 73.9952 27.5577C74.3516 27.2684 74.6825 26.7836 74.988 26.1032L75.7772 24.3171L76.0318 23.9343L81.1742 11.8906H84.2291L77.8647 26.6135C77.4405 27.6342 76.9653 28.4422 76.4391 29.0376C75.9299 29.6331 75.353 30.0497 74.708 30.2879C74.0801 30.5261 73.3842 30.6451 72.6205 30.6451ZM75.4208 26.0012L69.2855 11.8906H72.595L77.5847 23.6537L75.4208 26.0012ZM86.3911 25.695C85.8141 25.695 85.3219 25.4994 84.9145 25.1081C84.5072 24.6998 84.3036 24.1895 84.3036 23.5771C84.3036 22.9306 84.5072 22.4203 84.9145 22.0461C85.3219 21.6548 85.8141 21.4592 86.3911 21.4592C86.968 21.4592 87.4603 21.6548 87.8676 22.0461C88.2749 22.4203 88.4786 22.9306 88.4786 23.5771C88.4786 24.1895 88.2749 24.6998 87.8676 25.1081C87.4603 25.4994 86.968 25.695 86.3911 25.695Z" fill="#000E19"/>
<path d="M91.8936 25.5163V7.65491H95.203V25.5163H91.8936ZM107.431 11.7375C108.517 11.7375 109.485 11.9502 110.333 12.3754C111.199 12.8007 111.878 13.4556 112.37 14.3402C112.862 15.2077 113.108 16.3305 113.108 17.7083V25.5163H109.926V18.1166C109.926 16.9088 109.637 16.0073 109.06 15.4119C108.5 14.8165 107.711 14.5188 106.693 14.5188C105.946 14.5188 105.284 14.6719 104.707 14.9781C104.13 15.2843 103.68 15.7436 103.358 16.356C103.052 16.9514 102.9 17.7083 102.9 18.6269V25.5163H99.7176V11.8906H102.747V15.565L102.212 14.4423C102.688 13.5747 103.375 12.9113 104.274 12.452C105.191 11.9757 106.243 11.7375 107.431 11.7375ZM123.407 25.695C121.981 25.695 120.708 25.3973 119.588 24.8019C118.485 24.1895 117.62 23.356 116.992 22.3013C116.364 21.2465 116.05 20.0473 116.05 18.7035C116.05 17.3426 116.364 16.1433 116.992 15.1057C117.62 14.051 118.485 13.226 119.588 12.6306C120.708 12.0352 121.981 11.7375 123.407 11.7375C124.731 11.7375 125.893 12.0097 126.895 12.554C127.913 13.0814 128.685 13.8639 129.211 14.9015L126.767 16.3305C126.36 15.684 125.859 15.2077 125.265 14.9015C124.688 14.5954 124.06 14.4423 123.382 14.4423C122.601 14.4423 121.896 14.6124 121.269 14.9526C120.64 15.2928 120.148 15.7861 119.792 16.4325C119.436 17.0619 119.257 17.8189 119.257 18.7035C119.257 19.588 119.436 20.3535 119.792 21C120.148 21.6293 120.64 22.1141 121.269 22.4544C121.896 22.7947 122.601 22.9647 123.382 22.9647C124.06 22.9647 124.688 22.8116 125.265 22.5054C125.859 22.1992 126.36 21.723 126.767 21.0765L129.211 22.5054C128.685 23.5261 127.913 24.3171 126.895 24.8784C125.893 25.4229 124.731 25.695 123.407 25.695Z" fill="#00B0A1"/>
</svg>
