<svg width="18" height="18" viewBox="0 0 18 18" fill="none" xmlns="http://www.w3.org/2000/svg">
<path d="M7.83333 10.6667L17 1.5M7.83333 10.6667L10.75 16.5C10.7866 16.5798 10.8453 16.6474 10.9191 16.6948C10.993 16.7422 11.0789 16.7674 11.1667 16.7674C11.2544 16.7674 11.3403 16.7422 11.4142 16.6948C11.4881 16.6474 11.5468 16.5798 11.5833 16.5L17 1.5M7.83333 10.6667L2 7.75C1.92021 7.71344 1.8526 7.65474 1.8052 7.58088C1.7578 7.50701 1.7326 7.4211 1.7326 7.33333C1.7326 7.24557 1.7578 7.15965 1.8052 7.08579C1.8526 7.01193 1.92021 6.95323 2 6.91667L17 1.5" stroke="white" stroke-width="1.7" stroke-linecap="round" stroke-linejoin="round"/>
</svg>
