<svg width="40" height="40" viewBox="0 0 40 40" fill="none" xmlns="http://www.w3.org/2000/svg">
<rect width="40" height="40" rx="10" fill="url(#paint0_linear_1_553)"/>
<g clip-path="url(#clip0_1_553)">
<g filter="url(#filter0_d_1_553)">
<path d="M20 11C22.3358 13.0666 25.3845 14.1426 28.5 14C28.9536 15.543 29.0924 17.1615 28.9081 18.7592C28.7239 20.3569 28.2203 21.9013 27.4274 23.3005C26.6345 24.6998 25.5684 25.9254 24.2925 26.9045C23.0165 27.8836 21.5568 28.5962 20 29M20 11C17.6642 13.0666 14.6155 14.1426 11.5 14C11.0464 15.543 10.9076 17.1615 11.0919 18.7592C11.2762 20.3569 11.7797 21.9013 12.5726 23.3005C13.3655 24.6998 14.4316 25.9254 15.7076 26.9045C16.9835 27.8836 18.4432 28.5962 20 29M20 11V29M20 19H28.9M20 16H28.9M20 13H23.1M20 25H26.2M20 22H28" stroke="white" stroke-width="1.5" stroke-linecap="round" stroke-linejoin="round" shape-rendering="crispEdges"/>
</g>
</g>
<defs>
<filter id="filter0_d_1_553" x="6.26288" y="10.25" width="27.4743" height="27.5" filterUnits="userSpaceOnUse" color-interpolation-filters="sRGB">
<feFlood flood-opacity="0" result="BackgroundImageFix"/>
<feColorMatrix in="SourceAlpha" type="matrix" values="0 0 0 0 0 0 0 0 0 0 0 0 0 0 0 0 0 0 127 0" result="hardAlpha"/>
<feOffset dy="4"/>
<feGaussianBlur stdDeviation="2"/>
<feComposite in2="hardAlpha" operator="out"/>
<feColorMatrix type="matrix" values="0 0 0 0 0 0 0 0 0 0 0 0 0 0 0 0 0 0 0.25 0"/>
<feBlend mode="normal" in2="BackgroundImageFix" result="effect1_dropShadow_1_553"/>
<feBlend mode="normal" in="SourceGraphic" in2="effect1_dropShadow_1_553" result="shape"/>
</filter>
<linearGradient id="paint0_linear_1_553" x1="20" y1="0" x2="20" y2="56" gradientUnits="userSpaceOnUse">
<stop stop-color="#00B8A8"/>
<stop offset="1" stop-color="#00524B"/>
</linearGradient>
<clipPath id="clip0_1_553">
<rect width="24" height="24" fill="white" transform="translate(8 8)"/>
</clipPath>
</defs>
</svg>
